<svg xmlns="http://www.w3.org/2000/svg" width="108" height="117.6">
  <g fill="#242368">
    <path d="M108 40.8H91.5V25.4L64.4 0H0v117.6h91.5v-17.1H108V40.8zm-9.8 49.9H29.6V50.6h68.6z"/>
    <g data-name="Group 355">
      <path d="M52 81.3L47.2 74l-4.7 7.2h-5.2l7.4-11-7-10.7H43l4.2 6.8 4.3-6.8h5.1l-6.8 10.6 7.3 11z" data-name="Path 133"/>
      <path d="M60.2 59.6h4.6v17.7h9.7v4H60.2z" data-name="Path 134"/>
      <path d="M79.5 74.6c1.4 2 3 3.1 5.5 3.1 2 0 3.1-.9 3.1-2.4 0-1.2-.7-1.7-2.8-2.6l-2.4-1c-3.4-1.6-5.4-3.4-5.4-6.3 0-3.8 3.2-6.2 7.4-6.2a8 8 0 017.4 4.1l-3.1 2.4a5 5 0 00-4.3-2.5c-1.6 0-2.8.7-2.8 2 0 1.2.7 1.7 2.6 2.6l2.6 1c3.7 1.6 5.5 3.4 5.5 6.4 0 4-3.3 6.5-7.8 6.5a9.8 9.8 0 01-8.6-4.8z" data-name="Path 135"/>
    </g>
  </g>
</svg>